# xmcd CD database file
#
# Track frame offsets:
#	150
#	20317
#	41245
#	63432
#	97772
#	118320
#	139530
#	166015
#	188722
#	211145
#	241660
#
# Disc length: 3468 seconds
#
# Revision: 2
# Processed by: cddbd v1.4PL0 Copyright (c) Steve Scherf et al.
# Submitted via: CDex 1.40Beta9
#
DISCID=870d8a0b
DTITLE=Blinddog Smokin' - Ain't From Mississippi
DYEAR=1900
DGENRE=Blues
TTITLE0=Ain't From Mississippi
TTITLE1=Cut Dog Blues
TTITLE2=Miss Peggy's Pic-A-Rib Cafe
TTITLE3=The House Of The Rising Sun
TTITLE4=Horn Honkin' Whore
TTITLE5=See It Her Way
TTITLE6=Chasin' Pussycats
TTITLE7=Sittin' On The Levee
TTITLE8=Don't Put No Money On Me
TTITLE9=Church Of Fools
TTITLE10=You Don't Find The Blues
EXTD=ID3G: 0
EXTT0=
EXTT1=
EXTT2=
EXTT3=
EXTT4=
EXTT5=
EXTT6=
EXTT7=
EXTT8=
EXTT9=
EXTT10=
PLAYORDER=
